<?xml version="1.0" encoding="UTF-8"?>
<svg xmlns="http://www.w3.org/2000/svg" width="900" height="1180" viewBox="0 0 900 1180">
  <defs>
    <linearGradient id="g" x1="0" y1="0" x2="1" y2="1">
      <stop offset="0" stop-color="#163D2B"/>
      <stop offset="1" stop-color="#2F6B49"/>
    </linearGradient>
    <radialGradient id="r" cx="0.5" cy="0.5" r="0.75">
      <stop offset="0" stop-color="#FAF8F2" stop-opacity="0.14"/>
      <stop offset="1" stop-color="#FAF8F2" stop-opacity="0"/>
    </radialGradient>
  </defs>
  <rect width="900" height="1180" fill="url(#g)"/>
  
  <g transform="translate(254.3478260869565 421.42857142857144) scale(0.9)">
    <path d="M0 0 C -14 -10 -14 -26 0 -38 C 14 -26 14 -10 0 0 Z" fill="none" stroke="#FAF8F2" stroke-width="2.4" stroke-linecap="round"/>
    <path d="M0 -4 L0 -30" stroke="#FAF8F2" stroke-width="2.4" stroke-linecap="round"/>
  </g>
  
  <g transform="translate(450 590) scale(1.25)">
    <path d="M0 0 C -14 -10 -14 -26 0 -38 C 14 -26 14 -10 0 0 Z" fill="none" stroke="#FAF8F2" stroke-width="2.4" stroke-linecap="round"/>
    <path d="M0 -4 L0 -30" stroke="#FAF8F2" stroke-width="2.4" stroke-linecap="round"/>
  </g>
  
  <g transform="translate(645.6521739130435 758.5714285714286) scale(1.6)">
    <path d="M0 0 C -14 -10 -14 -26 0 -38 C 14 -26 14 -10 0 0 Z" fill="none" stroke="#FAF8F2" stroke-width="2.4" stroke-linecap="round"/>
    <path d="M0 -4 L0 -30" stroke="#FAF8F2" stroke-width="2.4" stroke-linecap="round"/>
  </g>
  <rect width="900" height="1180" fill="url(#r)"/>
  <circle cx="450" cy="590" r="279" stroke="#FAF8F2" stroke-opacity="0.16" stroke-width="1.5" fill="none" stroke-dasharray="3 10" stroke-linecap="round"/>
  <text x="50%" y="895" dominant-baseline="middle" text-anchor="middle" fill="#FAF8F2" fill-opacity="0.72" font-family="Inter, system-ui, sans-serif" font-size="33" font-weight="600" letter-spacing="0.04em">PHOTO PLACEHOLDER</text>
  <text x="50%" y="953.8235294117648" dominant-baseline="middle" text-anchor="middle" fill="#FAF8F2" fill-opacity="0.62" font-family="Inter, system-ui, sans-serif" font-size="28">Who we serve — young women farmers in community</text>
  <text x="50%" y="1158" dominant-baseline="middle" text-anchor="middle" fill="#FAF8F2" fill-opacity="0.4" font-family="monospace" font-size="11" letter-spacing="0.1em">public/images/who-we-serve.svg</text>
</svg>